<svg width="13" height="16" viewBox="0 0 13 16" fill="none" xmlns="http://www.w3.org/2000/svg">
<path fill-rule="evenodd" clip-rule="evenodd" d="M4.26562 0.375C4.51191 0.122396 4.85977 0 5.2 0H7.8C8.14023 0 8.48809 0.122396 8.73438 0.375C8.98066 0.627604 9.1 0.984375 9.1 1.33333V2H13V3.33333H12.35V14C12.35 15.0964 11.4689 16 10.4 16H2.6C1.53105 16 0.65 15.0964 0.65 14V3.33333H0V2H3.9V1.33333C3.9 0.984375 4.01934 0.627604 4.26562 0.375ZM7.8 1.33333H5.2V2H7.8V1.33333ZM1.95 3.33333H11.05V14C11.05 14.3698 10.7605 14.6667 10.4 14.6667H2.6C2.23945 14.6667 1.95 14.3698 1.95 14V3.33333ZM3.25 12.6667V5.33333H4.55V12.6667H3.25ZM5.85 5.33333V12.6667H7.15V5.33333H5.85ZM8.45 12.6667V5.33333H9.75V12.6667H8.45Z" fill="#B2B9C3"/>
</svg>
