<svg width="16" height="16" viewBox="0 0 16 16" fill="none" xmlns="http://www.w3.org/2000/svg">
<path fill-rule="evenodd" clip-rule="evenodd" d="M1.45455 0C0.650909 0 0 0.650909 0 1.45455V14.5455C0 15.3491 0.650909 16 1.45455 16H2.58665C2.33647 15.5702 2.18182 15.0778 2.18182 14.5455V1.45455C2.18182 0.922182 2.33647 0.429818 2.58665 0H1.45455ZM5.09091 0C4.28727 0 3.63636 0.650909 3.63636 1.45455V14.5455C3.63636 15.3491 4.28727 16 5.09091 16H14.5455C15.3491 16 16 15.3491 16 14.5455V4.72727C16 4.53455 15.9237 4.3498 15.7869 4.21307L11.7869 0.213068C11.6502 0.0763409 11.4655 0 11.2727 0H5.09091ZM14.6151 5.09091L10.9091 1.38494V4.36364C10.9091 4.76509 11.2349 5.09091 11.6364 5.09091H14.6151ZM7.27273 8H12.3636C12.7651 8 13.0909 8.32582 13.0909 8.72727C13.0909 9.12873 12.7651 9.45455 12.3636 9.45455H7.27273C6.87127 9.45455 6.54545 9.12873 6.54545 8.72727C6.54545 8.32582 6.87127 8 7.27273 8ZM10.9091 10.9091H7.27273C6.87127 10.9091 6.54545 11.2349 6.54545 11.6364C6.54545 12.0378 6.87127 12.3636 7.27273 12.3636H10.9091C11.3105 12.3636 11.6364 12.0378 11.6364 11.6364C11.6364 11.2349 11.3105 10.9091 10.9091 10.9091Z" fill="white"/>
</svg>
