<svg width="30" height="30" viewBox="0 0 30 30" fill="none" xmlns="http://www.w3.org/2000/svg">
<path fill-rule="evenodd" clip-rule="evenodd" d="M27.8529 8.56209C27.8523 9.07165 27.8049 9.58008 27.7115 10.081C29.1543 11.3007 29.9873 13.0935 29.989 14.9827C29.9924 18.5321 27.1178 21.4123 23.5683 21.4156H20.355C19.7634 21.4156 19.2838 20.936 19.2838 20.3444C19.2838 19.7528 19.7634 19.2733 20.355 19.2733H23.5683C25.0006 19.2699 26.3363 18.5511 27.1282 17.3577C28.4365 15.386 27.8987 12.7269 25.927 11.4187C25.54 11.1631 25.3614 10.6876 25.4846 10.2405C25.5396 10.0364 25.5846 9.82962 25.6193 9.62106C26.2007 6.12317 23.8365 2.81627 20.3386 2.23485C16.8407 1.65342 13.5338 4.01765 12.9524 7.51554C12.9168 7.73483 12.8139 7.93755 12.658 8.09577C12.2428 8.51709 11.5646 8.52204 11.1433 8.10681C10.7437 7.71518 10.2067 7.49539 9.64721 7.49445C8.4641 7.4925 7.5034 8.45006 7.50146 9.63317C7.50146 10.2248 7.0219 10.7043 6.43031 10.7043C4.06401 10.7043 2.14577 12.6226 2.14577 14.9889C2.14577 17.3552 4.06401 19.2734 6.43031 19.2734H11.7859C12.3775 19.2734 12.8571 19.753 12.8571 20.3446C12.8571 20.9361 12.3775 21.4157 11.7859 21.4157H6.43031C3.24704 21.417 0.5424 19.0878 0.0715631 15.9395C-0.453437 12.4291 1.96665 9.15782 5.47702 8.63282C5.52479 8.43367 5.58679 8.23824 5.66255 8.04794C6.53776 5.84947 9.02945 4.77675 11.2279 5.6519C12.4558 2.26497 15.6709 0.00775489 19.2736 0.00342434C24.0061 -0.00228695 27.8472 3.82955 27.8529 8.56209ZM20.671 22.8007C21.086 22.3998 21.7441 22.3998 22.1592 22.8007C22.5847 23.2116 22.5965 23.8897 22.1855 24.3152L16.8298 29.6708L16.8279 29.6727C16.4091 30.0905 15.7308 30.0896 15.3131 29.6708L9.95744 24.3152C9.55652 23.9001 9.55652 23.242 9.95744 22.8269C10.3684 22.4014 11.0465 22.3896 11.472 22.8006L14.9993 26.3279V10.7044C14.9993 10.1128 15.4788 9.63324 16.0704 9.63324C16.662 9.63324 17.1416 10.1128 17.1416 10.7044V26.3279L20.671 22.8007Z" fill="#B2B9C3"/>
</svg>
