<svg width="16" height="16" viewBox="0 0 16 16" fill="none" xmlns="http://www.w3.org/2000/svg">
<path fill-rule="evenodd" clip-rule="evenodd" d="M1.99334 14.6443H7.97344C8.34087 14.6443 8.63787 14.9413 8.63787 15.3088C8.63787 15.6762 8.34087 15.9732 7.97344 15.9732H1.99334C0.894344 15.9732 0 15.0789 0 13.9799V2.01974C0 0.920742 0.894344 0.0263672 1.99334 0.0263672H7.97344C8.34087 0.0263672 8.63787 0.32343 8.63787 0.690867C8.63787 1.0583 8.34087 1.3553 7.97344 1.3553H1.99334C1.62659 1.3553 1.32891 1.65296 1.32891 2.01974V13.9799C1.32891 14.3466 1.62656 14.6443 1.99334 14.6443ZM11.7621 3.53999L15.802 7.52671C15.9289 7.65231 16 7.82174 16 7.99974C16 8.1778 15.9283 8.34793 15.802 8.47284L11.7621 12.4596C11.6332 12.5871 11.4645 12.6509 11.2957 12.6509C11.1243 12.6509 10.9528 12.5845 10.8226 12.4529C10.5655 12.1918 10.5675 11.7712 10.8293 11.5134L13.7163 8.66424H5.98006C5.61263 8.66424 5.31563 8.36721 5.31563 7.99977C5.31563 7.63234 5.61263 7.33534 5.98006 7.33534H13.7163L10.8293 4.48618C10.5674 4.22837 10.5648 3.80777 10.8226 3.54665C11.0804 3.28552 11.5017 3.28218 11.7621 3.53999Z" fill="#B3B9C2"/>
</svg>
