<svg width="50" height="40" viewBox="0 0 50 40" fill="none" xmlns="http://www.w3.org/2000/svg">
<path fill-rule="evenodd" clip-rule="evenodd" d="M21.4839 19.9152V7.60951C21.4839 5.69333 23.0507 4.13472 24.9769 4.13472C26.9031 4.13472 28.4696 5.69333 28.4696 7.60951V19.9152H21.4839ZM21.4839 37.6784V24.0499H28.4696V37.6784C28.4696 38.8206 29.4003 39.7462 30.5479 39.7462C31.6961 39.7462 32.6266 38.8206 32.6266 37.6784V7.83072C32.6266 3.7382 29.4717 0.211594 25.3626 0.00950699C20.9703 -0.206493 17.3269 3.28638 17.3269 7.60951V37.6784C17.3269 38.8206 18.2577 39.7462 19.4056 39.7462C20.5535 39.7462 21.4839 38.8206 21.4839 37.6784Z" fill="#6C63FF"/>
<path fill-rule="evenodd" clip-rule="evenodd" d="M2.07832 16.0425C0.930769 16.0425 0 16.9677 0 18.1096V22.5889C0 23.7308 0.930769 24.6564 2.07832 24.6564C3.22587 24.6564 4.15664 23.7308 4.15664 22.5889V18.1096C4.15664 16.9677 3.22587 16.0425 2.07832 16.0425Z" fill="#6C63FF"/>
<path fill-rule="evenodd" clip-rule="evenodd" d="M10.7407 31.4533C11.8882 31.4533 12.819 30.528 12.819 29.3861V11.3131C12.819 10.1708 11.8882 9.24561 10.7407 9.24561C9.59312 9.24561 8.66235 10.1708 8.66235 11.3131V29.3861C8.66235 30.528 9.59312 31.4533 10.7407 31.4533Z" fill="#6C63FF"/>
<path fill-rule="evenodd" clip-rule="evenodd" d="M47.8776 16.0425C46.7301 16.0425 45.7993 16.9677 45.7993 18.1096V22.5889C45.7993 23.7308 46.7301 24.6564 47.8776 24.6564C49.0252 24.6564 49.956 23.7308 49.956 22.5889V18.1096C49.956 16.9677 49.0252 16.0425 47.8776 16.0425Z" fill="#6C63FF"/>
<path fill-rule="evenodd" clip-rule="evenodd" d="M39.2128 9.24561C38.0653 9.24561 37.1345 10.1708 37.1345 11.3127V29.3858C37.1345 30.528 38.0653 31.4533 39.2128 31.4533C40.3604 31.4533 41.2912 30.528 41.2912 29.3858V11.3127C41.2912 10.1708 40.3604 9.24561 39.2128 9.24561Z" fill="#6C63FF"/>
</svg>
