<svg width="25" height="32" viewBox="0 0 25 32" fill="none" xmlns="http://www.w3.org/2000/svg">
<path fill-rule="evenodd" clip-rule="evenodd" d="M0 0V32H25V9.3288L15.4053 0H0ZM1.38889 1.3913H14.5833V10.4348H23.6111V30.6087H1.38889V1.3913ZM22.7132 9.04348L15.9722 2.48913V9.04348H22.7132ZM13.208 14.8342C12.717 14.8342 12.2233 14.8804 11.8598 14.9565V21.3288H13.151V18.9212H13.4087C13.9404 18.9212 14.6105 18.7283 15.0255 18.3043C15.37 17.9402 15.587 17.4511 15.587 16.75C15.587 16.2038 15.408 15.6658 15.0146 15.3315C14.5806 14.9375 13.9784 14.8342 13.208 14.8342ZM5.32769 21.3288L5.80783 14.8614H7.17231L7.70399 17.2038L7.7392 17.357C7.9122 18.1096 8.06689 18.7825 8.17871 19.4674H8.1977C8.29536 18.7473 8.44455 18.019 8.62088 17.2038L9.14442 14.8614H10.5062L10.9104 21.3288H9.75477L9.63542 19.0652L9.62461 18.8464C9.59537 18.2601 9.55922 17.5355 9.57845 16.9239H9.54861C9.42925 17.6141 9.25293 18.4103 9.12543 18.9103L8.55035 21.2228H7.63618L7.08279 18.9484C6.95258 18.4293 6.77626 17.625 6.67589 16.9239H6.64876C6.62706 17.625 6.58908 18.4402 6.55111 19.0842L6.4426 21.3288H5.32769ZM17.5727 15.0136C17.041 15.0136 16.5175 15.1793 16.2516 15.3397L16.4171 16.2935C16.6558 16.1495 16.9406 16.0435 17.2282 16.0435C17.6812 16.0435 17.9769 16.3125 17.9769 16.7609C17.9769 17.3668 17.3665 17.5571 16.8918 17.5679H16.7643V18.4891H16.9406C17.5998 18.4891 18.1424 18.7853 18.1424 19.4783C18.1424 20.0054 17.7979 20.3804 17.1766 20.3804C16.8321 20.3804 16.4768 20.2826 16.2218 20.1386L16.0346 21.1277C16.3194 21.2826 16.7725 21.4049 17.296 21.4049C18.6876 21.4049 19.4363 20.4755 19.4363 19.5245C19.4363 18.6821 18.9643 18.144 18.3404 17.9429V17.9239C18.9046 17.663 19.26 17.144 19.26 16.5217C19.26 15.7255 18.6957 15.0136 17.5727 15.0136ZM14.3039 16.8587C14.3039 16.2908 14.0679 15.8478 13.4657 15.8478C13.3464 15.8478 13.2297 15.8696 13.151 15.8995V17.894C13.2107 17.913 13.2785 17.913 13.3572 17.913C14.0082 17.913 14.3039 17.462 14.3039 16.8587Z" fill="#6F5FFF"/>
</svg>
