<svg width="13" height="16" viewBox="0 0 13 16" fill="none" xmlns="http://www.w3.org/2000/svg">
<path fill-rule="evenodd" clip-rule="evenodd" d="M6.09254 1.46876C6.71811 1.46876 7.31878 1.57914 7.87619 1.78121V1.71255C7.87619 0.768246 7.10795 0 6.16367 0H6.02174C5.07744 0 4.30919 0.768246 4.30919 1.71255V1.78034C4.86631 1.57887 5.46679 1.46876 6.09254 1.46876ZM3.96715 13.9864C4.32802 14.8022 5.14472 15.3732 6.09269 15.3732C7.04067 15.3732 7.85734 14.8022 8.21824 13.9864H3.96715ZM0.463514 13.0841H11.7219C11.9349 13.0841 12.13 12.9404 12.1743 12.7321C12.2181 12.5258 12.1241 12.3222 11.9334 12.2341C11.8881 12.2048 11.5474 11.9665 11.2063 11.2458C10.5799 9.92214 10.4484 8.05762 10.4484 6.72654C10.4484 6.72076 10.4483 6.71499 10.4481 6.70925C10.4388 4.31546 8.4885 2.37102 6.09254 2.37102C3.6909 2.37102 1.737 4.32487 1.737 6.72654C1.737 8.05762 1.60551 9.92214 0.979066 11.2458C0.637981 11.9665 0.297287 12.2047 0.252024 12.2341C0.061286 12.3222 -0.0327297 12.5258 0.0111202 12.7321C0.0554213 12.9405 0.25052 13.0841 0.463514 13.0841Z" fill="#B3B9C2"/>
</svg>
